{
    "asset" : {
        "generator" : "Khronos glTF Blender I/O v1.6.16",
        "version" : "2.0"
    },
    "extensionsUsed" : [
        "KHR_materials_transmission"
    ],
    "scene" : 0,
    "scenes" : [
        {
            "name" : "Scene",
            "nodes" : [
                0,
                1,
                2,
                3
            ]
        }
    ],
    "nodes" : [
        {
            "mesh" : 0,
            "name" : "1",
            "rotation" : [
                0,
                0,
                -0.7071067690849304,
                0.7071068286895752
            ]
        },
        {
            "mesh" : 1,
            "name" : "2",
            "rotation" : [
                0,
                0,
                -0.7071067690849304,
                0.7071068286895752
            ]
        },
        {
            "mesh" : 2,
            "name" : "3",
            "rotation" : [
                0,
                0,
                -0.7071067690849304,
                0.7071068286895752
            ],
            "scale" : [
                1.37142014503479,
                1,
                1.0582157373428345
            ],
            "translation" : [
                -0.3380550146102905,
                1.3884402513504028,
                0
            ]
        },
        {
            "name" : "4",
            "translation" : [
                3.8218679428100586,
                1.2712937593460083,
                -0.007994651794433594
            ]
        }
    ],
    "animations" : [
        {
            "channels" : [
                {
                    "sampler" : 0,
                    "target" : {
                        "node" : 3,
                        "path" : "translation"
                    }
                }
            ],
            "name" : "\u041f\u0443\u0441\u0442\u044b\u0448\u043a\u0430Action",
            "samplers" : [
                {
                    "input" : 12,
                    "interpolation" : "LINEAR",
                    "output" : 13
                }
            ]
        }
    ],
    "materials" : [
        {
            "doubleSided" : true,
            "name" : "\u041c\u0430\u0442\u0435\u0440\u0438\u0430\u043b.001",
            "pbrMetallicRoughness" : {
                "baseColorFactor" : [
                    0.3049810528755188,
                    0.09619182348251343,
                    0.09445787221193314,
                    1
                ],
                "metallicFactor" : 0,
                "roughnessFactor" : 0.7727272510528564
            }
        },
        {
            "doubleSided" : true,
            "name" : "\u041c\u0430\u0442\u0435\u0440\u0438\u0430\u043b.002",
            "pbrMetallicRoughness" : {
                "baseColorFactor" : [
                    0.4073812663555145,
                    0.12279967963695526,
                    0.5805200338363647,
                    1
                ],
                "metallicFactor" : 0
            }
        },
        {
            "doubleSided" : true,
            "emissiveFactor" : [
                0,
                0.00022102166258264333,
                0.15729203820228577
            ],
            "extensions" : {
                "KHR_materials_transmission" : {
                    "transmissionFactor" : 0.6115702390670776
                }
            },
            "name" : "\u041c\u0430\u0442\u0435\u0440\u0438\u0430\u043b",
            "pbrMetallicRoughness" : {
                "baseColorFactor" : [
                    0.8000000715255737,
                    0.08527565747499466,
                    0.30427825450897217,
                    1
                ],
                "metallicFactor" : 0.27272728085517883,
                "roughnessFactor" : 0.38429751992225647
            }
        }
    ],
    "meshes" : [
        {
            "name" : "\u041f\u043b\u043e\u0441\u043a\u043e\u0441\u0442\u044c",
            "primitives" : [
                {
                    "attributes" : {
                        "POSITION" : 0,
                        "NORMAL" : 1,
                        "TEXCOORD_0" : 2
                    },
                    "indices" : 3,
                    "material" : 0
                }
            ]
        },
        {
            "name" : "\u041f\u043b\u043e\u0441\u043a\u043e\u0441\u0442\u044c.001",
            "primitives" : [
                {
                    "attributes" : {
                        "POSITION" : 4,
                        "NORMAL" : 5,
                        "TEXCOORD_0" : 6
                    },
                    "indices" : 7,
                    "material" : 1
                }
            ]
        },
        {
            "name" : "\u041f\u043b\u043e\u0441\u043a\u043e\u0441\u0442\u044c.002",
            "primitives" : [
                {
                    "attributes" : {
                        "POSITION" : 8,
                        "NORMAL" : 9,
                        "TEXCOORD_0" : 10
                    },
                    "indices" : 11,
                    "material" : 2
                }
            ]
        }
    ],
    "accessors" : [
        {
            "bufferView" : 0,
            "componentType" : 5126,
            "count" : 292,
            "max" : [
                -0.011223793029785156,
                1.734945698217416e-07,
                1.5512901544570923
            ],
            "min" : [
                -3.75697660446167,
                -0.7350537180900574,
                -1.5512901544570923
            ],
            "type" : "VEC3"
        },
        {
            "bufferView" : 1,
            "componentType" : 5126,
            "count" : 292,
            "type" : "VEC3"
        },
        {
            "bufferView" : 2,
            "componentType" : 5126,
            "count" : 292,
            "type" : "VEC2"
        },
        {
            "bufferView" : 3,
            "componentType" : 5123,
            "count" : 468,
            "type" : "SCALAR"
        },
        {
            "bufferView" : 4,
            "componentType" : 5126,
            "count" : 284,
            "max" : [
                -0.009885668754577637,
                0.16061171889305115,
                1.7350151538848877
            ],
            "min" : [
                -3.821958303451538,
                -0.807919442653656,
                -1.6457982063293457
            ],
            "type" : "VEC3"
        },
        {
            "bufferView" : 5,
            "componentType" : 5126,
            "count" : 284,
            "type" : "VEC3"
        },
        {
            "bufferView" : 6,
            "componentType" : 5126,
            "count" : 284,
            "type" : "VEC2"
        },
        {
            "bufferView" : 7,
            "componentType" : 5123,
            "count" : 492,
            "type" : "SCALAR"
        },
        {
            "bufferView" : 8,
            "componentType" : 5126,
            "count" : 2704,
            "max" : [
                1,
                3.3726088588537095e-08,
                1
            ],
            "min" : [
                -1.3257321119308472,
                0,
                -1
            ],
            "type" : "VEC3"
        },
        {
            "bufferView" : 9,
            "componentType" : 5126,
            "count" : 2704,
            "type" : "VEC3"
        },
        {
            "bufferView" : 10,
            "componentType" : 5126,
            "count" : 2704,
            "type" : "VEC2"
        },
        {
            "bufferView" : 11,
            "componentType" : 5123,
            "count" : 15606,
            "type" : "SCALAR"
        },
        {
            "bufferView" : 12,
            "componentType" : 5126,
            "count" : 200,
            "max" : [
                8.333333333333334
            ],
            "min" : [
                0.041666666666666664
            ],
            "type" : "SCALAR"
        },
        {
            "bufferView" : 13,
            "componentType" : 5126,
            "count" : 200,
            "type" : "VEC3"
        }
    ],
    "bufferViews" : [
        {
            "buffer" : 0,
            "byteLength" : 3504,
            "byteOffset" : 0
        },
        {
            "buffer" : 0,
            "byteLength" : 3504,
            "byteOffset" : 3504
        },
        {
            "buffer" : 0,
            "byteLength" : 2336,
            "byteOffset" : 7008
        },
        {
            "buffer" : 0,
            "byteLength" : 936,
            "byteOffset" : 9344
        },
        {
            "buffer" : 0,
            "byteLength" : 3408,
            "byteOffset" : 10280
        },
        {
            "buffer" : 0,
            "byteLength" : 3408,
            "byteOffset" : 13688
        },
        {
            "buffer" : 0,
            "byteLength" : 2272,
            "byteOffset" : 17096
        },
        {
            "buffer" : 0,
            "byteLength" : 984,
            "byteOffset" : 19368
        },
        {
            "buffer" : 0,
            "byteLength" : 32448,
            "byteOffset" : 20352
        },
        {
            "buffer" : 0,
            "byteLength" : 32448,
            "byteOffset" : 52800
        },
        {
            "buffer" : 0,
            "byteLength" : 21632,
            "byteOffset" : 85248
        },
        {
            "buffer" : 0,
            "byteLength" : 31212,
            "byteOffset" : 106880
        },
        {
            "buffer" : 0,
            "byteLength" : 800,
            "byteOffset" : 138092
        },
        {
            "buffer" : 0,
            "byteLength" : 2400,
            "byteOffset" : 138892
        }
    ],
    "buffers" : [
        {
            "byteLength" : 141292,
            "uri" : "PORT.bin"
        }
    ]
}
